<svg xmlns="http://www.w3.org/2000/svg" width="85" height="82.1" viewBox="0 0 85 82.1"><g fill="none" stroke="#2E2C4C" stroke-width="2.7" stroke-linecap="round" stroke-linejoin="round" stroke-miterlimit="10"><path d="M36.9 80.8H32C15.1 80.8 1.3 67 1.3 50.1V38.8C1.3 36.7 3 35 5.1 35h58.7c2.1 0 3.7 1.7 3.7 3.7V50c0 17-13.7 30.8-30.6 30.8zM73.8 39.6c5.4 0 10.9 0 9.7 9.7-.7 5.3-4.4 9.7-9.7 9.7-.9 0-1.8-.1-2.6-.4M20.5 1.4c-5.8 7.2 6.5 10.8 0 18.4M34.2 8.3c-5.8 7.2 6.5 10.8 0 18.4M48 5.3c-5.8 7.2 6.5 10.8 0 18.4"/></g></svg>