<svg xmlns="http://www.w3.org/2000/svg" width="87" height="83.3" viewBox="0 0 87 83.3"><g fill="none" stroke="#2E2C4C" stroke-width="2.7" stroke-linecap="round" stroke-linejoin="round" stroke-miterlimit="10"><path d="M65.3 44.9c11.2 0 20.4 7.7 20.4 17.2 0 6.3-4.1 11.9-10.1 14.9.2 2 1 4.3 3.6 5 0 0-7.6.4-12.1-2.8-.6 0-1.1.1-1.7.1-11.2 0-20.4-7.7-20.4-17.2s9.1-17.2 20.3-17.2z"/><path d="M76.4 47.7c2.1-4.1 3.3-8.5 3.3-13.2 0-18.3-17.5-33.1-39.2-33.1-21.6-.1-39.1 14.8-39.1 33 0 12.2 7.9 22.9 19.5 28.6-.4 3.9-2 8.3-7 9.7 0 0 14.7.8 23.3-5.4 1.1.1 2.2.1 3.3.1 1.8 0 3.6-.1 5.3-.3"/></g></svg>